# xmcd
# 
# Track frame offsets:
#     150
#     17197
#     34905
#     51432
#     66310
#     85777
#     105655
#     123995
#     142867
#     158932
#     173447
#     193272
#     209355
#     225473
# 
# Disc length: 3270
# 
# Revision: 0
# Processed by: cddbd v1.5.2PL0 Copyright (c) Steve Scherf et al.
# Submitted via: fre:ac v1.0.31
# 
DISCID=bd0cc40e
DTITLE=Shakira - Oral Fixation Vol. 2 [Limited Edition]
DYEAR=2006
DGENRE=Pop
TTITLE0=How Do You Do
TTITLE1=Shakira Feat. Carlos Santana - Illegal
TTITLE2=Shakira Feat. Wyclef Jean - Hips Don't Lie
TTITLE3=Animal City
TTITLE4=Don't Bother
TTITLE5=Shakira Feat. Gustavo Cerati - The Day And The Time
TTITLE6=Dreams For Plans
TTITLE7=Hey You
TTITLE8=Your Embrace
TTITLE9=Costume Makes The Clown
TTITLE10=Something
TTITLE11=Timor
TTITLE12=Shakira Feat. Alejandro Sanz - La Tortura [Alternate Version]
TTITLE13=Don't Bother (Jrsnchz Radio Mix)
EXTD=
EXTT0=
EXTT1=
EXTT2=
EXTT3=
EXTT4=
EXTT5=
EXTT6=
EXTT7=
EXTT8=
EXTT9=
EXTT10=
EXTT11=
EXTT12=
EXTT13=
PLAYORDER=
